<?xml version="1.0" encoding="utf-8"?>
<!-- Generator: Adobe Illustrator 18.0.0, SVG Export Plug-In . SVG Version: 6.00 Build 0)  -->
<!DOCTYPE svg PUBLIC "-//W3C//DTD SVG 1.1//EN" "http://www.w3.org/Graphics/SVG/1.1/DTD/svg11.dtd">
<svg version="1.1" id="Слой_1" xmlns="http://www.w3.org/2000/svg" xmlns:xlink="http://www.w3.org/1999/xlink" x="0px" y="0px"
	 viewBox="0 0 480 640" enable-background="new 0 0 480 640" xml:space="preserve">
<g id="Layer_1">
</g>
<path id="White_2_" d="M378.8,164H101.2c-9.5,0-17.2,7.7-17.2,17.2v277.6c0,9.5,7.7,17.2,17.2,17.2h149.5V355.2H210v-47.1h40.7
	v-34.7c0-40.3,24.6-62.3,60.6-62.3c17.2,0,32,1.3,36.3,1.9v42.1h-25c-19.5,0-23.3,9.3-23.3,22.9v30.1H346l-6.1,47.1h-40.5V476h79.6
	c9.5,0,17.2-7.7,17.2-17.2V181.2C396,171.7,388.3,164,378.8,164z"/>
</svg>
