<?xml version="1.0" encoding="utf-8"?>
<!-- Generator: Adobe Illustrator 18.0.0, SVG Export Plug-In . SVG Version: 6.00 Build 0)  -->
<!DOCTYPE svg PUBLIC "-//W3C//DTD SVG 1.1//EN" "http://www.w3.org/Graphics/SVG/1.1/DTD/svg11.dtd">
<svg version="1.1" id="Layer_1" xmlns="http://www.w3.org/2000/svg" xmlns:xlink="http://www.w3.org/1999/xlink" x="0px" y="0px"
	 viewBox="0 0 480 640" enable-background="new 0 0 480 640" xml:space="preserve">
<path d="M239.9,138.7C137.3,138.7,54,221.9,54,324.6c0,82.2,53.2,151.9,127.2,176.5c9.3,1.7,12.6-4,12.6-9
	c0-4.5-0.1-16.1-0.2-31.6c-51.7,11.1-62.6-25-62.6-25c-8.5-21.4-20.7-27.3-20.7-27.3c-16.9-11.6,1.3-11.4,1.3-11.4
	c18.6,1.3,28.5,19.1,28.5,19.1c16.6,28.5,43.5,20.3,54.1,15.4c1.7-12,6.5-20.3,11.8-24.9c-41.2-4.7-84.7-20.7-84.7-91.9
	c0-20.3,7.3-36.9,19.1-49.9c-1.9-4.7-8.3-23.6,1.8-49.3c0,0,15.6-5,51.2,19c14.8-4.1,30.7-6.2,46.6-6.2c15.8,0.1,31.7,2.2,46.6,6.2
	c35.3-23.8,50.9-18.8,50.9-18.8c10.1,25.5,3.8,44.5,1.9,49.3c11.9,13,19.1,29.6,19.1,49.9c0,71.4-43.5,87.2-85,91.8
	c6.6,5.8,12.6,17.1,12.6,34.5c0,24.9-0.2,44.9-0.2,51c0,5,3.3,10.8,12.8,8.9C372.8,476.2,426,406.7,426,324.6
	C425.9,221.9,342.6,138.7,239.9,138.7z"/>
</svg>
