<svg xmlns="http://www.w3.org/2000/svg" style="width:0; height:0; visibility:hidden;">
    <symbol id="Facebook" viewBox="0 0 480 640">
        <path id="White_2_" d="M378.8,164H101.2c-9.5,0-17.2,7.7-17.2,17.2v277.6c0,9.5,7.7,17.2,17.2,17.2h149.5V355.2H210v-47.1h40.7
	v-34.7c0-40.3,24.6-62.3,60.6-62.3c17.2,0,32,1.3,36.3,1.9v42.1h-25c-19.5,0-23.3,9.3-23.3,22.9v30.1H346l-6.1,47.1h-40.5V476h79.6
	c9.5,0,17.2-7.7,17.2-17.2V181.2C396,171.7,388.3,164,378.8,164z"/> 
    </symbol>
    <symbol id="Github" viewBox="0 0 480 640">
       <path d="M239.9,138.7C137.3,138.7,54,221.9,54,324.6c0,82.2,53.2,151.9,127.2,176.5c9.3,1.7,12.6-4,12.6-9
	c0-4.5-0.1-16.1-0.2-31.6c-51.7,11.1-62.6-25-62.6-25c-8.5-21.4-20.7-27.3-20.7-27.3c-16.9-11.6,1.3-11.4,1.3-11.4
	c18.6,1.3,28.5,19.1,28.5,19.1c16.6,28.5,43.5,20.3,54.1,15.4c1.7-12,6.5-20.3,11.8-24.9c-41.2-4.7-84.7-20.7-84.7-91.9
	c0-20.3,7.3-36.9,19.1-49.9c-1.9-4.7-8.3-23.6,1.8-49.3c0,0,15.6-5,51.2,19c14.8-4.1,30.7-6.2,46.6-6.2c15.8,0.1,31.7,2.2,46.6,6.2
	c35.3-23.8,50.9-18.8,50.9-18.8c10.1,25.5,3.8,44.5,1.9,49.3c11.9,13,19.1,29.6,19.1,49.9c0,71.4-43.5,87.2-85,91.8
	c6.6,5.8,12.6,17.1,12.6,34.5c0,24.9-0.2,44.9-0.2,51c0,5,3.3,10.8,12.8,8.9C372.8,476.2,426,406.7,426,324.6
	C425.9,221.9,342.6,138.7,239.9,138.7z"/> 
    </symbol>
    <symbol id="LinkedIn" viewBox="0 0 480 640">
       <g> <path d="M121.9,208.8c23.2,0,37.6-15.4,37.6-34.7c-0.4-19.7-14.4-34.6-37.2-34.6c-22.8,0-37.6,14.9-37.6,34.6
		c0,19.2,14.4,34.7,36.8,34.7H121.9L121.9,208.8z M155.2,436.4V236.2H88.6v200.3L155.2,436.4L155.2,436.4z"/> <path d="M192,436.4h66.6V324.6c0-6,0.4-12,2.2-16.2c4.8-12,15.8-24.3,34.1-24.3c24.1,0,33.8,18.4,33.8,45.3v107.2h66.6V321.6
		c0-61.5-32.9-90.2-76.6-90.2c-35.9,0-51.7,20.1-60.5,33.8h0.4v-29H192C192.9,254.9,192,436.4,192,436.4L192,436.4z"/> </g> 
    </symbol>
    <symbol id="Twitter" viewBox="0 0 480 640">
       <path d="M413.3,212.6c-12.8,5.7-26.5,9.4-40.8,11.2c14.7-8.8,26-22.7,31.2-39.3c-13.8,8.2-29,14-45.2,17.3
	c-12.9-13.8-31.5-22.5-51.9-22.5c-39.3,0-71.1,31.8-71.1,71.1c0,5.6,0.7,11,1.8,16.2c-59.1-3-111.5-31.2-146.6-74.3
	c-6.1,10.5-9.6,22.8-9.6,35.8c0,24.6,12.5,46.4,31.7,59.2c-11.7-0.3-22.6-3.6-32.2-8.9c0,0.3,0,0.6,0,0.9c0,34.5,24.5,63.2,57,69.7
	c-5.9,1.6-12.3,2.5-18.7,2.5c-4.6,0-9-0.4-13.4-1.3c9,28.2,35.3,48.8,66.4,49.4c-24.3,19-55,30.5-88.3,30.5c-5.8,0-11.4-0.3-17-1
	c31.5,20.2,68.8,32,109,32c130.8,0,202.3-108.3,202.3-202.3c0-3.1-0.1-6.2-0.2-9.2C391.8,239.4,403.8,226.8,413.3,212.6z"/> 
    </symbol>
    <symbol id="VK" viewBox="0 0 480 640">
       <path d="M356.9,434.1c-0.6,0-1.2,0-1.8,0c-18.9-3.2-31.9-16.8-42.9-29.4c-6.2-7.1-15.8-23.3-27.1-21.4c-16.1,2.6-8.1,30.7-14.9,42.7
	c-5.4,9.7-28.7,7.9-44.7,6.2c-50.6-5.4-76.3-32.8-99-62.3c-24.2-31.5-43-64.3-60.4-100.5C60.5,257.8,53,244.8,53,230.3
	c8.2-6.8,21.5-4.4,35.1-4.4c11.4,0,29.3-2.5,37.7,1.8c5,2.5,10,16.2,14.1,24.9c9.2,20,17.7,34.3,28.9,50.7
	c4.9,7.1,12.3,20.5,21,18.7c8.5-1.7,9.3-22.9,9.6-36.5c0.5-15.4,0-34.5-4.4-42.7c-4.1-7.8-11.6-7.8-19.3-12.4
	c6.3-13,23.7-14.2,44.7-14.2c17.6,0,42.2-2,49,9.8c7,12,2.2,33.6,1.7,49.8c-0.5,18.2-3.6,37,8.7,45.4c9.5-1.1,14.6-10.5,20.1-17.8
	c12.1-16,19.6-30,28.9-50.7c3.9-8.5,7.9-23.2,14.9-25.8c10.5-4.1,27.4-0.9,42.9-0.9c12.7,0,35.3-3.6,39.4,5.3
	c3.4,7.4-6.6,26-9.6,31.1c-11.7,19.6-23.3,32-35.9,48.9c-5,6.8-15.5,17.7-14.9,28.5c0.5,8.2,8.7,14.5,14.9,20.5
	c13.6,12.8,23.2,22.2,34.2,36.5c4.1,5.4,13.2,17,12.3,24.1C424.3,442.5,373.9,428.8,356.9,434.1z"/> 
    </symbol></svg>