<?xml version="1.0" encoding="utf-8"?>
<!-- Generator: Adobe Illustrator 18.0.0, SVG Export Plug-In . SVG Version: 6.00 Build 0)  -->
<!DOCTYPE svg PUBLIC "-//W3C//DTD SVG 1.1//EN" "http://www.w3.org/Graphics/SVG/1.1/DTD/svg11.dtd">
<svg version="1.1" id="Layer_1" xmlns="http://www.w3.org/2000/svg" xmlns:xlink="http://www.w3.org/1999/xlink" x="0px" y="0px"
	 viewBox="0 0 480 640" enable-background="new 0 0 480 640" xml:space="preserve">
<g>
	<path d="M121.9,208.8c23.2,0,37.6-15.4,37.6-34.7c-0.4-19.7-14.4-34.6-37.2-34.6c-22.8,0-37.6,14.9-37.6,34.6
		c0,19.2,14.4,34.7,36.8,34.7H121.9L121.9,208.8z M155.2,436.4V236.2H88.6v200.3L155.2,436.4L155.2,436.4z"/>
	<path d="M192,436.4h66.6V324.6c0-6,0.4-12,2.2-16.2c4.8-12,15.8-24.3,34.1-24.3c24.1,0,33.8,18.4,33.8,45.3v107.2h66.6V321.6
		c0-61.5-32.9-90.2-76.6-90.2c-35.9,0-51.7,20.1-60.5,33.8h0.4v-29H192C192.9,254.9,192,436.4,192,436.4L192,436.4z"/>
</g>
</svg>
