<?xml version="1.0" encoding="utf-8"?>
<!-- Generator: Adobe Illustrator 18.0.0, SVG Export Plug-In . SVG Version: 6.00 Build 0)  -->
<!DOCTYPE svg PUBLIC "-//W3C//DTD SVG 1.1//EN" "http://www.w3.org/Graphics/SVG/1.1/DTD/svg11.dtd">
<svg version="1.1" id="Layer_1" xmlns="http://www.w3.org/2000/svg" xmlns:xlink="http://www.w3.org/1999/xlink" x="0px" y="0px"
	 viewBox="0 0 480 640" enable-background="new 0 0 480 640" xml:space="preserve">
<path d="M413.3,212.6c-12.8,5.7-26.5,9.4-40.8,11.2c14.7-8.8,26-22.7,31.2-39.3c-13.8,8.2-29,14-45.2,17.3
	c-12.9-13.8-31.5-22.5-51.9-22.5c-39.3,0-71.1,31.8-71.1,71.1c0,5.6,0.7,11,1.8,16.2c-59.1-3-111.5-31.2-146.6-74.3
	c-6.1,10.5-9.6,22.8-9.6,35.8c0,24.6,12.5,46.4,31.7,59.2c-11.7-0.3-22.6-3.6-32.2-8.9c0,0.3,0,0.6,0,0.9c0,34.5,24.5,63.2,57,69.7
	c-5.9,1.6-12.3,2.5-18.7,2.5c-4.6,0-9-0.4-13.4-1.3c9,28.2,35.3,48.8,66.4,49.4c-24.3,19-55,30.5-88.3,30.5c-5.8,0-11.4-0.3-17-1
	c31.5,20.2,68.8,32,109,32c130.8,0,202.3-108.3,202.3-202.3c0-3.1-0.1-6.2-0.2-9.2C391.8,239.4,403.8,226.8,413.3,212.6z"/>
</svg>
