<?xml version="1.0" encoding="utf-8"?>
<!-- Generator: Adobe Illustrator 18.0.0, SVG Export Plug-In . SVG Version: 6.00 Build 0)  -->
<!DOCTYPE svg PUBLIC "-//W3C//DTD SVG 1.1//EN" "http://www.w3.org/Graphics/SVG/1.1/DTD/svg11.dtd">
<svg version="1.1" id="Layer_1" xmlns="http://www.w3.org/2000/svg" xmlns:xlink="http://www.w3.org/1999/xlink" x="0px" y="0px"
	 viewBox="0 0 480 640" enable-background="new 0 0 480 640" xml:space="preserve">
<path d="M356.9,434.1c-0.6,0-1.2,0-1.8,0c-18.9-3.2-31.9-16.8-42.9-29.4c-6.2-7.1-15.8-23.3-27.1-21.4c-16.1,2.6-8.1,30.7-14.9,42.7
	c-5.4,9.7-28.7,7.9-44.7,6.2c-50.6-5.4-76.3-32.8-99-62.3c-24.2-31.5-43-64.3-60.4-100.5C60.5,257.8,53,244.8,53,230.3
	c8.2-6.8,21.5-4.4,35.1-4.4c11.4,0,29.3-2.5,37.7,1.8c5,2.5,10,16.2,14.1,24.9c9.2,20,17.7,34.3,28.9,50.7
	c4.9,7.1,12.3,20.5,21,18.7c8.5-1.7,9.3-22.9,9.6-36.5c0.5-15.4,0-34.5-4.4-42.7c-4.1-7.8-11.6-7.8-19.3-12.4
	c6.3-13,23.7-14.2,44.7-14.2c17.6,0,42.2-2,49,9.8c7,12,2.2,33.6,1.7,49.8c-0.5,18.2-3.6,37,8.7,45.4c9.5-1.1,14.6-10.5,20.1-17.8
	c12.1-16,19.6-30,28.9-50.7c3.9-8.5,7.9-23.2,14.9-25.8c10.5-4.1,27.4-0.9,42.9-0.9c12.7,0,35.3-3.6,39.4,5.3
	c3.4,7.4-6.6,26-9.6,31.1c-11.7,19.6-23.3,32-35.9,48.9c-5,6.8-15.5,17.7-14.9,28.5c0.5,8.2,8.7,14.5,14.9,20.5
	c13.6,12.8,23.2,22.2,34.2,36.5c4.1,5.4,13.2,17,12.3,24.1C424.3,442.5,373.9,428.8,356.9,434.1z"/>
</svg>
