<svg xmlns="http://www.w3.org/2000/svg" width="512" height="512" viewBox="0 0 512 512"><path d="M436.1 448.41V480H75.9v-31.59h360.2ZM75.9 32h360.2c24.2 0 43.84 19.59 43.9 43.8v360.4c-.06 24.21-19.69 43.8-43.9 43.8v-31.59c6.785 0 12.293-5.486 12.31-12.288V75.878l-.005-.317c-.184-6.65-5.631-11.971-12.305-11.971H75.9c-6.78 0-12.293 5.49-12.31 12.288v360.244l.005.317c.184 6.65 5.63 11.971 12.305 11.971V480l-1.131-.015C51.09 479.386 32.059 460.032 32 436.2V75.8c.06-23.832 19.09-43.186 42.769-43.785L75.9 32Z"/><path d="M152.12 208.29c-3.88-2.9-7.77-4.35-11.65-4.35h-17.44v104.47h17.45c3.88 0 7.77-1.45 11.65-4.35 3.88-2.9 5.82-7.25 5.82-13.06v-69.65c-.01-5.8-1.96-10.16-5.83-13.06Zm34.08 82.9c0 18.81-11.61 47.31-48.36 47.25h-46.4V172.98h47.38c35.44 0 47.36 28.46 47.37 47.28l.01 70.93Zm100.68-88.66H233.6v38.42h32.57v29.57H233.6v38.41h53.29v29.57h-62.18c-11.16.29-20.44-8.53-20.72-19.69V193.7c-.27-11.15 8.56-20.41 19.71-20.69h63.19l-.01 29.52Zm103.64 115.29c-13.2 30.75-36.85 24.63-47.44 0l-38.53-144.8h32.57l29.71 113.72 29.57-113.72h32.58l-38.46 144.8Z"/></svg>
